<svg xmlns="http://www.w3.org/2000/svg" width="245.04" height="149.01"><defs><style>.cls-1{fill:#737a7f}</style></defs><g id="Livello_2" data-name="Livello 2"><g id="Livello_1-2" data-name="Livello 1"><g id="Livello_2-2" data-name="Livello 2"><g id="Livello_2-2-2" data-name="Livello 2-2"><circle cx="242.63" cy="12.05" r="2.41" class="cls-1"/><circle cx="242.63" cy="137.05" r="2.41" class="cls-1"/><circle cx="242.63" cy="127.43" r="2.41" class="cls-1"/><circle cx="242.63" cy="117.82" r="2.41" class="cls-1"/><circle cx="242.63" cy="108.2" r="2.41" class="cls-1"/><circle cx="242.63" cy="98.59" r="2.41" class="cls-1"/><circle cx="242.63" cy="88.97" r="2.41" class="cls-1"/><circle cx="242.63" cy="79.36" r="2.41" class="cls-1"/><circle cx="242.63" cy="69.74" r="2.41" class="cls-1"/><circle cx="242.63" cy="60.13" r="2.41" class="cls-1"/><circle cx="242.63" cy="50.51" r="2.41" class="cls-1"/><circle cx="242.63" cy="40.89" r="2.41" class="cls-1"/><circle cx="242.63" cy="31.28" r="2.41" class="cls-1"/><circle cx="242.63" cy="21.66" r="2.41" class="cls-1"/><circle cx="2.41" cy="12.05" r="2.41" class="cls-1"/><circle cx="2.41" cy="137.05" r="2.41" class="cls-1"/><circle cx="2.41" cy="127.43" r="2.41" class="cls-1"/><circle cx="2.41" cy="117.82" r="2.41" class="cls-1"/><circle cx="2.41" cy="108.2" r="2.41" class="cls-1"/><circle cx="2.41" cy="98.59" r="2.41" class="cls-1"/><circle cx="2.41" cy="88.97" r="2.41" class="cls-1"/><circle cx="2.41" cy="79.36" r="2.41" class="cls-1"/><circle cx="2.41" cy="69.74" r="2.41" class="cls-1"/><circle cx="2.41" cy="60.13" r="2.41" class="cls-1"/><circle cx="2.41" cy="50.51" r="2.41" class="cls-1"/><circle cx="2.41" cy="40.89" r="2.41" class="cls-1"/><circle cx="2.41" cy="31.28" r="2.41" class="cls-1"/><circle cx="2.41" cy="21.66" r="2.41" class="cls-1"/><circle cx="233.02" cy="12.05" r="2.41" class="cls-1"/><circle cx="233.02" cy="137.05" r="2.41" class="cls-1"/><circle cx="233.02" cy="127.43" r="2.41" class="cls-1"/><circle cx="233.02" cy="117.82" r="2.41" class="cls-1"/><circle cx="233.02" cy="108.2" r="2.41" class="cls-1"/><circle cx="233.02" cy="98.59" r="2.41" class="cls-1"/><circle cx="233.02" cy="88.97" r="2.41" class="cls-1"/><circle cx="233.02" cy="79.36" r="2.41" class="cls-1"/><circle cx="233.02" cy="69.74" r="2.41" class="cls-1"/><circle cx="233.02" cy="60.13" r="2.41" class="cls-1"/><circle cx="233.02" cy="50.51" r="2.41" class="cls-1"/><circle cx="233.02" cy="40.89" r="2.41" class="cls-1"/><circle cx="233.02" cy="31.28" r="2.41" class="cls-1"/><circle cx="233.02" cy="21.66" r="2.41" class="cls-1"/><circle cx="223.41" cy="12.05" r="2.41" class="cls-1"/><circle cx="223.41" cy="137.05" r="2.41" class="cls-1"/><circle cx="223.41" cy="127.43" r="2.41" class="cls-1"/><circle cx="223.41" cy="117.82" r="2.41" class="cls-1"/><circle cx="223.41" cy="108.2" r="2.41" class="cls-1"/><circle cx="223.41" cy="98.59" r="2.41" class="cls-1"/><circle cx="223.41" cy="88.97" r="2.41" class="cls-1"/><circle cx="223.41" cy="79.36" r="2.41" class="cls-1"/><circle cx="223.41" cy="69.74" r="2.41" class="cls-1"/><circle cx="223.41" cy="60.13" r="2.41" class="cls-1"/><circle cx="223.41" cy="50.51" r="2.41" class="cls-1"/><circle cx="223.41" cy="40.89" r="2.41" class="cls-1"/><circle cx="223.41" cy="31.28" r="2.41" class="cls-1"/><circle cx="223.41" cy="21.66" r="2.41" class="cls-1"/><circle cx="213.8" cy="12.05" r="2.41" class="cls-1"/><circle cx="213.8" cy="137.05" r="2.41" class="cls-1"/><circle cx="213.8" cy="127.43" r="2.41" class="cls-1"/><circle cx="213.8" cy="117.82" r="2.41" class="cls-1"/><circle cx="213.8" cy="108.2" r="2.41" class="cls-1"/><circle cx="213.8" cy="98.59" r="2.41" class="cls-1"/><circle cx="213.8" cy="88.97" r="2.41" class="cls-1"/><circle cx="213.8" cy="79.36" r="2.41" class="cls-1"/><circle cx="213.8" cy="69.74" r="2.41" class="cls-1"/><circle cx="213.8" cy="60.13" r="2.41" class="cls-1"/><circle cx="213.8" cy="50.51" r="2.41" class="cls-1"/><circle cx="213.8" cy="40.89" r="2.41" class="cls-1"/><circle cx="213.8" cy="31.28" r="2.41" class="cls-1"/><circle cx="213.8" cy="21.66" r="2.41" class="cls-1"/><circle cx="204.19" cy="12.05" r="2.41" class="cls-1"/><circle cx="204.19" cy="137.05" r="2.41" class="cls-1"/><circle cx="204.19" cy="127.43" r="2.41" class="cls-1"/><circle cx="204.19" cy="117.82" r="2.41" class="cls-1"/><circle cx="204.19" cy="108.2" r="2.41" class="cls-1"/><circle cx="204.19" cy="98.59" r="2.41" class="cls-1"/><circle cx="204.19" cy="88.97" r="2.41" class="cls-1"/><circle cx="204.19" cy="79.36" r="2.41" class="cls-1"/><circle cx="204.19" cy="69.74" r="2.41" class="cls-1"/><circle cx="204.19" cy="60.13" r="2.41" class="cls-1"/><circle cx="204.19" cy="50.51" r="2.41" class="cls-1"/><circle cx="204.19" cy="40.89" r="2.41" class="cls-1"/><circle cx="204.19" cy="31.28" r="2.41" class="cls-1"/><circle cx="204.19" cy="21.66" r="2.41" class="cls-1"/><circle cx="194.59" cy="12.05" r="2.41" class="cls-1"/><circle cx="194.59" cy="137.05" r="2.41" class="cls-1"/><circle cx="194.59" cy="127.43" r="2.41" class="cls-1"/><circle cx="194.59" cy="117.82" r="2.41" class="cls-1"/><circle cx="194.59" cy="108.2" r="2.41" class="cls-1"/><circle cx="194.59" cy="98.59" r="2.41" class="cls-1"/><circle cx="194.59" cy="88.97" r="2.41" class="cls-1"/><circle cx="194.59" cy="79.36" r="2.41" class="cls-1"/><circle cx="194.59" cy="69.74" r="2.41" class="cls-1"/><circle cx="194.59" cy="60.13" r="2.41" class="cls-1"/><circle cx="194.59" cy="50.51" r="2.41" class="cls-1"/><circle cx="194.59" cy="40.89" r="2.41" class="cls-1"/><circle cx="194.59" cy="31.28" r="2.41" class="cls-1"/><circle cx="194.59" cy="21.66" r="2.41" class="cls-1"/><circle cx="184.98" cy="12.05" r="2.41" class="cls-1"/><circle cx="184.98" cy="137.05" r="2.41" class="cls-1"/><circle cx="184.98" cy="127.43" r="2.41" class="cls-1"/><circle cx="184.98" cy="117.82" r="2.41" class="cls-1"/><circle cx="184.98" cy="108.2" r="2.41" class="cls-1"/><circle cx="184.98" cy="98.59" r="2.41" class="cls-1"/><circle cx="184.98" cy="88.97" r="2.41" class="cls-1"/><circle cx="184.98" cy="79.36" r="2.41" class="cls-1"/><circle cx="184.98" cy="69.74" r="2.41" class="cls-1"/><circle cx="184.98" cy="60.13" r="2.41" class="cls-1"/><circle cx="184.98" cy="50.51" r="2.41" class="cls-1"/><circle cx="184.98" cy="40.89" r="2.41" class="cls-1"/><circle cx="184.98" cy="31.28" r="2.41" class="cls-1"/><circle cx="184.98" cy="21.66" r="2.41" class="cls-1"/><circle cx="175.37" cy="12.05" r="2.41" class="cls-1"/><circle cx="175.37" cy="137.05" r="2.41" class="cls-1"/><circle cx="175.37" cy="127.43" r="2.41" class="cls-1"/><circle cx="175.37" cy="117.82" r="2.41" class="cls-1"/><circle cx="175.37" cy="108.2" r="2.41" class="cls-1"/><circle cx="175.37" cy="98.59" r="2.41" class="cls-1"/><circle cx="175.37" cy="88.97" r="2.41" class="cls-1"/><circle cx="175.37" cy="79.36" r="2.41" class="cls-1"/><circle cx="175.37" cy="69.74" r="2.41" class="cls-1"/><circle cx="175.37" cy="60.13" r="2.41" class="cls-1"/><circle cx="175.37" cy="50.51" r="2.41" class="cls-1"/><circle cx="175.37" cy="40.89" r="2.41" class="cls-1"/><circle cx="175.37" cy="31.28" r="2.41" class="cls-1"/><circle cx="175.37" cy="21.66" r="2.41" class="cls-1"/><circle cx="165.76" cy="12.05" r="2.41" class="cls-1"/><circle cx="165.76" cy="137.05" r="2.41" class="cls-1"/><circle cx="165.76" cy="127.43" r="2.41" class="cls-1"/><circle cx="165.76" cy="117.82" r="2.41" class="cls-1"/><circle cx="165.76" cy="108.2" r="2.41" class="cls-1"/><circle cx="165.76" cy="98.59" r="2.41" class="cls-1"/><circle cx="165.76" cy="88.97" r="2.41" class="cls-1"/><circle cx="165.76" cy="79.36" r="2.41" class="cls-1"/><circle cx="165.76" cy="69.74" r="2.41" class="cls-1"/><circle cx="165.76" cy="60.13" r="2.41" class="cls-1"/><circle cx="165.76" cy="50.51" r="2.41" class="cls-1"/><circle cx="165.76" cy="40.89" r="2.41" class="cls-1"/><circle cx="165.76" cy="31.28" r="2.41" class="cls-1"/><circle cx="165.76" cy="21.66" r="2.41" class="cls-1"/><circle cx="156.15" cy="12.05" r="2.41" class="cls-1"/><circle cx="156.15" cy="137.05" r="2.41" class="cls-1"/><circle cx="156.15" cy="127.43" r="2.41" class="cls-1"/><circle cx="156.15" cy="117.82" r="2.41" class="cls-1"/><circle cx="156.15" cy="108.2" r="2.41" class="cls-1"/><circle cx="156.15" cy="98.59" r="2.41" class="cls-1"/><circle cx="156.15" cy="88.97" r="2.41" class="cls-1"/><circle cx="156.15" cy="79.36" r="2.41" class="cls-1"/><circle cx="156.15" cy="69.74" r="2.41" class="cls-1"/><circle cx="156.15" cy="60.13" r="2.41" class="cls-1"/><circle cx="156.15" cy="50.51" r="2.41" class="cls-1"/><circle cx="156.15" cy="40.89" r="2.41" class="cls-1"/><circle cx="156.15" cy="31.28" r="2.41" class="cls-1"/><circle cx="156.15" cy="21.66" r="2.41" class="cls-1"/><circle cx="146.54" cy="12.05" r="2.41" class="cls-1"/><circle cx="146.54" cy="137.05" r="2.41" class="cls-1"/><circle cx="146.54" cy="127.43" r="2.41" class="cls-1"/><circle cx="146.54" cy="117.82" r="2.41" class="cls-1"/><circle cx="146.54" cy="108.2" r="2.41" class="cls-1"/><circle cx="146.54" cy="98.59" r="2.41" class="cls-1"/><circle cx="146.54" cy="88.97" r="2.41" class="cls-1"/><circle cx="146.54" cy="79.36" r="2.41" class="cls-1"/><circle cx="146.54" cy="69.74" r="2.41" class="cls-1"/><circle cx="146.54" cy="60.13" r="2.41" class="cls-1"/><circle cx="146.54" cy="50.51" r="2.41" class="cls-1"/><circle cx="146.54" cy="40.89" r="2.41" class="cls-1"/><circle cx="146.54" cy="31.28" r="2.41" class="cls-1"/><circle cx="146.54" cy="21.66" r="2.41" class="cls-1"/><circle cx="136.93" cy="12.05" r="2.41" class="cls-1"/><circle cx="136.93" cy="137.05" r="2.41" class="cls-1"/><circle cx="136.93" cy="127.43" r="2.41" class="cls-1"/><circle cx="136.93" cy="117.82" r="2.41" class="cls-1"/><circle cx="136.93" cy="108.2" r="2.41" class="cls-1"/><circle cx="136.93" cy="98.59" r="2.41" class="cls-1"/><circle cx="136.93" cy="88.97" r="2.41" class="cls-1"/><circle cx="136.93" cy="79.36" r="2.41" class="cls-1"/><circle cx="136.93" cy="69.74" r="2.41" class="cls-1"/><circle cx="136.93" cy="60.13" r="2.41" class="cls-1"/><circle cx="136.93" cy="50.51" r="2.41" class="cls-1"/><circle cx="136.93" cy="40.89" r="2.41" class="cls-1"/><circle cx="136.93" cy="31.28" r="2.41" class="cls-1"/><circle cx="136.93" cy="21.66" r="2.41" class="cls-1"/><circle cx="127.32" cy="12.05" r="2.41" class="cls-1"/><circle cx="127.32" cy="137.05" r="2.41" class="cls-1"/><circle cx="127.32" cy="127.43" r="2.41" class="cls-1"/><circle cx="127.32" cy="117.82" r="2.41" class="cls-1"/><circle cx="127.32" cy="108.2" r="2.41" class="cls-1"/><circle cx="127.32" cy="98.59" r="2.41" class="cls-1"/><circle cx="127.32" cy="88.97" r="2.41" class="cls-1"/><circle cx="127.32" cy="79.36" r="2.41" class="cls-1"/><circle cx="127.32" cy="69.74" r="2.41" class="cls-1"/><circle cx="127.32" cy="60.13" r="2.41" class="cls-1"/><circle cx="127.32" cy="50.51" r="2.41" class="cls-1"/><circle cx="127.32" cy="40.89" r="2.41" class="cls-1"/><circle cx="127.32" cy="31.28" r="2.41" class="cls-1"/><circle cx="127.32" cy="21.66" r="2.41" class="cls-1"/><circle cx="117.71" cy="12.05" r="2.41" class="cls-1"/><circle cx="117.71" cy="137.05" r="2.41" class="cls-1"/><circle cx="117.71" cy="127.43" r="2.41" class="cls-1"/><circle cx="117.71" cy="117.82" r="2.41" class="cls-1"/><circle cx="117.71" cy="108.2" r="2.41" class="cls-1"/><circle cx="117.71" cy="98.59" r="2.41" class="cls-1"/><circle cx="117.71" cy="88.97" r="2.41" class="cls-1"/><circle cx="117.71" cy="79.36" r="2.41" class="cls-1"/><circle cx="117.71" cy="69.74" r="2.41" class="cls-1"/><circle cx="117.71" cy="60.13" r="2.41" class="cls-1"/><circle cx="117.71" cy="50.51" r="2.41" class="cls-1"/><circle cx="117.71" cy="40.89" r="2.41" class="cls-1"/><circle cx="117.71" cy="31.28" r="2.41" class="cls-1"/><circle cx="117.71" cy="21.66" r="2.41" class="cls-1"/><circle cx="108.11" cy="12.05" r="2.41" class="cls-1"/><circle cx="108.11" cy="137.05" r="2.41" class="cls-1"/><circle cx="108.11" cy="127.43" r="2.41" class="cls-1"/><circle cx="108.11" cy="117.82" r="2.41" class="cls-1"/><circle cx="108.11" cy="108.2" r="2.41" class="cls-1"/><circle cx="108.11" cy="98.59" r="2.41" class="cls-1"/><circle cx="108.11" cy="88.97" r="2.41" class="cls-1"/><circle cx="108.11" cy="79.36" r="2.41" class="cls-1"/><circle cx="108.11" cy="69.74" r="2.41" class="cls-1"/><circle cx="108.11" cy="60.13" r="2.41" class="cls-1"/><circle cx="108.11" cy="50.51" r="2.41" class="cls-1"/><circle cx="108.11" cy="40.89" r="2.41" class="cls-1"/><circle cx="108.11" cy="31.28" r="2.41" class="cls-1"/><circle cx="108.11" cy="21.66" r="2.41" class="cls-1"/><circle cx="98.5" cy="12.05" r="2.41" class="cls-1"/><circle cx="98.5" cy="137.05" r="2.41" class="cls-1"/><circle cx="98.5" cy="127.43" r="2.41" class="cls-1"/><circle cx="98.5" cy="117.82" r="2.41" class="cls-1"/><circle cx="98.5" cy="108.2" r="2.41" class="cls-1"/><circle cx="98.5" cy="98.59" r="2.41" class="cls-1"/><circle cx="98.5" cy="88.97" r="2.41" class="cls-1"/><circle cx="98.5" cy="79.36" r="2.41" class="cls-1"/><circle cx="98.5" cy="69.74" r="2.41" class="cls-1"/><circle cx="98.5" cy="60.13" r="2.41" class="cls-1"/><circle cx="98.5" cy="50.51" r="2.41" class="cls-1"/><circle cx="98.5" cy="40.89" r="2.41" class="cls-1"/><circle cx="98.5" cy="31.28" r="2.41" class="cls-1"/><circle cx="98.5" cy="21.66" r="2.41" class="cls-1"/><circle cx="88.89" cy="12.05" r="2.41" class="cls-1"/><circle cx="88.89" cy="137.05" r="2.41" class="cls-1"/><circle cx="88.89" cy="127.43" r="2.41" class="cls-1"/><circle cx="88.89" cy="117.82" r="2.41" class="cls-1"/><circle cx="88.89" cy="108.2" r="2.41" class="cls-1"/><circle cx="88.89" cy="98.59" r="2.41" class="cls-1"/><circle cx="88.89" cy="88.97" r="2.41" class="cls-1"/><circle cx="88.89" cy="79.36" r="2.41" class="cls-1"/><circle cx="88.89" cy="69.74" r="2.41" class="cls-1"/><circle cx="88.89" cy="60.13" r="2.41" class="cls-1"/><circle cx="88.89" cy="50.51" r="2.41" class="cls-1"/><circle cx="88.89" cy="40.89" r="2.41" class="cls-1"/><circle cx="88.89" cy="31.28" r="2.41" class="cls-1"/><circle cx="88.89" cy="21.66" r="2.41" class="cls-1"/><circle cx="79.28" cy="12.05" r="2.41" class="cls-1"/><circle cx="79.28" cy="137.05" r="2.41" class="cls-1"/><circle cx="79.28" cy="127.43" r="2.41" class="cls-1"/><circle cx="79.28" cy="117.82" r="2.41" class="cls-1"/><circle cx="79.28" cy="108.2" r="2.41" class="cls-1"/><circle cx="79.28" cy="98.59" r="2.41" class="cls-1"/><circle cx="79.28" cy="88.97" r="2.41" class="cls-1"/><circle cx="79.28" cy="79.36" r="2.41" class="cls-1"/><circle cx="79.28" cy="69.74" r="2.41" class="cls-1"/><circle cx="79.28" cy="60.13" r="2.41" class="cls-1"/><circle cx="79.28" cy="50.51" r="2.41" class="cls-1"/><circle cx="79.28" cy="40.89" r="2.41" class="cls-1"/><circle cx="79.28" cy="31.28" r="2.41" class="cls-1"/><circle cx="79.28" cy="21.66" r="2.41" class="cls-1"/><circle cx="69.67" cy="12.05" r="2.41" class="cls-1"/><circle cx="69.67" cy="137.05" r="2.41" class="cls-1"/><circle cx="69.67" cy="127.43" r="2.41" class="cls-1"/><circle cx="69.67" cy="117.82" r="2.41" class="cls-1"/><circle cx="69.67" cy="108.2" r="2.41" class="cls-1"/><circle cx="69.67" cy="98.59" r="2.41" class="cls-1"/><circle cx="69.67" cy="88.97" r="2.41" class="cls-1"/><circle cx="69.67" cy="79.36" r="2.41" class="cls-1"/><circle cx="69.67" cy="69.74" r="2.41" class="cls-1"/><circle cx="69.67" cy="60.13" r="2.41" class="cls-1"/><circle cx="69.67" cy="50.51" r="2.41" class="cls-1"/><circle cx="69.67" cy="40.89" r="2.41" class="cls-1"/><circle cx="69.67" cy="31.28" r="2.41" class="cls-1"/><circle cx="69.67" cy="21.66" r="2.41" class="cls-1"/><circle cx="60.06" cy="12.05" r="2.41" class="cls-1"/><circle cx="60.06" cy="137.05" r="2.41" class="cls-1"/><circle cx="60.06" cy="127.43" r="2.41" class="cls-1"/><circle cx="60.06" cy="117.82" r="2.41" class="cls-1"/><circle cx="60.06" cy="108.2" r="2.41" class="cls-1"/><circle cx="60.06" cy="98.59" r="2.41" class="cls-1"/><circle cx="60.06" cy="88.97" r="2.41" class="cls-1"/><circle cx="60.06" cy="79.36" r="2.41" class="cls-1"/><circle cx="60.06" cy="69.74" r="2.41" class="cls-1"/><circle cx="60.06" cy="60.13" r="2.41" class="cls-1"/><circle cx="60.06" cy="50.51" r="2.41" class="cls-1"/><circle cx="60.06" cy="40.89" r="2.41" class="cls-1"/><circle cx="60.06" cy="31.28" r="2.41" class="cls-1"/><circle cx="60.06" cy="21.66" r="2.41" class="cls-1"/><circle cx="50.45" cy="12.05" r="2.41" class="cls-1"/><circle cx="50.45" cy="137.05" r="2.41" class="cls-1"/><circle cx="50.45" cy="127.43" r="2.41" class="cls-1"/><circle cx="50.45" cy="117.82" r="2.41" class="cls-1"/><circle cx="50.45" cy="108.2" r="2.41" class="cls-1"/><circle cx="50.45" cy="98.59" r="2.41" class="cls-1"/><circle cx="50.45" cy="88.97" r="2.41" class="cls-1"/><circle cx="50.45" cy="79.36" r="2.41" class="cls-1"/><circle cx="50.45" cy="69.74" r="2.41" class="cls-1"/><circle cx="50.45" cy="60.13" r="2.41" class="cls-1"/><circle cx="50.45" cy="50.51" r="2.41" class="cls-1"/><circle cx="50.45" cy="40.89" r="2.41" class="cls-1"/><circle cx="50.45" cy="31.28" r="2.41" class="cls-1"/><circle cx="50.45" cy="21.66" r="2.41" class="cls-1"/><circle cx="40.84" cy="12.05" r="2.41" class="cls-1"/><circle cx="40.84" cy="137.05" r="2.41" class="cls-1"/><circle cx="40.84" cy="127.43" r="2.41" class="cls-1"/><circle cx="40.84" cy="117.82" r="2.41" class="cls-1"/><circle cx="40.84" cy="108.2" r="2.41" class="cls-1"/><circle cx="40.84" cy="98.59" r="2.41" class="cls-1"/><circle cx="40.84" cy="88.97" r="2.41" class="cls-1"/><circle cx="40.84" cy="79.36" r="2.41" class="cls-1"/><circle cx="40.84" cy="69.74" r="2.41" class="cls-1"/><circle cx="40.84" cy="60.13" r="2.41" class="cls-1"/><circle cx="40.84" cy="50.51" r="2.41" class="cls-1"/><circle cx="40.84" cy="40.89" r="2.41" class="cls-1"/><circle cx="40.84" cy="31.28" r="2.41" class="cls-1"/><circle cx="40.84" cy="21.66" r="2.41" class="cls-1"/><circle cx="31.23" cy="12.05" r="2.41" class="cls-1"/><circle cx="31.23" cy="137.05" r="2.41" class="cls-1"/><circle cx="31.23" cy="127.43" r="2.41" class="cls-1"/><circle cx="31.23" cy="117.82" r="2.41" class="cls-1"/><circle cx="31.23" cy="108.2" r="2.41" class="cls-1"/><circle cx="31.23" cy="98.59" r="2.41" class="cls-1"/><circle cx="31.23" cy="88.97" r="2.41" class="cls-1"/><circle cx="31.23" cy="79.36" r="2.41" class="cls-1"/><circle cx="31.23" cy="69.74" r="2.41" class="cls-1"/><circle cx="31.23" cy="60.13" r="2.41" class="cls-1"/><circle cx="31.23" cy="50.51" r="2.41" class="cls-1"/><circle cx="31.23" cy="40.89" r="2.41" class="cls-1"/><circle cx="31.23" cy="31.28" r="2.41" class="cls-1"/><circle cx="31.23" cy="21.66" r="2.41" class="cls-1"/><circle cx="21.63" cy="12.05" r="2.41" class="cls-1"/><circle cx="21.63" cy="137.05" r="2.41" class="cls-1"/><circle cx="21.63" cy="127.43" r="2.41" class="cls-1"/><circle cx="21.63" cy="117.82" r="2.41" class="cls-1"/><circle cx="21.63" cy="108.2" r="2.41" class="cls-1"/><circle cx="21.63" cy="98.59" r="2.41" class="cls-1"/><circle cx="21.63" cy="88.97" r="2.41" class="cls-1"/><circle cx="21.63" cy="79.36" r="2.41" class="cls-1"/><circle cx="21.63" cy="69.74" r="2.41" class="cls-1"/><circle cx="21.63" cy="60.13" r="2.41" class="cls-1"/><circle cx="21.63" cy="50.51" r="2.41" class="cls-1"/><circle cx="21.63" cy="40.89" r="2.41" class="cls-1"/><circle cx="21.63" cy="31.28" r="2.41" class="cls-1"/><circle cx="21.63" cy="21.66" r="2.41" class="cls-1"/><circle cx="12.02" cy="12.05" r="2.41" class="cls-1"/><circle cx="12.02" cy="137.05" r="2.41" class="cls-1"/><circle cx="12.02" cy="127.43" r="2.41" class="cls-1"/><circle cx="12.02" cy="117.82" r="2.41" class="cls-1"/><circle cx="12.02" cy="108.2" r="2.41" class="cls-1"/><circle cx="12.02" cy="98.59" r="2.41" class="cls-1"/><circle cx="12.02" cy="88.97" r="2.41" class="cls-1"/><circle cx="12.02" cy="79.36" r="2.41" class="cls-1"/><circle cx="12.02" cy="69.74" r="2.41" class="cls-1"/><circle cx="12.02" cy="60.13" r="2.41" class="cls-1"/><circle cx="12.02" cy="50.51" r="2.41" class="cls-1"/><circle cx="12.02" cy="40.89" r="2.41" class="cls-1"/><circle cx="12.02" cy="31.28" r="2.41" class="cls-1"/><circle cx="12.02" cy="21.66" r="2.41" class="cls-1"/><circle cx="233.02" cy="146.6" r="2.41" class="cls-1"/><circle cx="223.41" cy="146.6" r="2.41" class="cls-1"/><circle cx="213.8" cy="146.6" r="2.41" class="cls-1"/><circle cx="204.19" cy="146.6" r="2.41" class="cls-1"/><circle cx="194.59" cy="146.6" r="2.41" class="cls-1"/><circle cx="184.98" cy="146.6" r="2.41" class="cls-1"/><circle cx="175.37" cy="146.6" r="2.41" class="cls-1"/><circle cx="165.76" cy="146.6" r="2.41" class="cls-1"/><circle cx="156.15" cy="146.6" r="2.41" class="cls-1"/><circle cx="146.54" cy="146.6" r="2.41" class="cls-1"/><circle cx="136.93" cy="146.6" r="2.41" class="cls-1"/><circle cx="127.32" cy="146.6" r="2.41" class="cls-1"/><circle cx="117.71" cy="146.6" r="2.41" class="cls-1"/><circle cx="108.11" cy="146.6" r="2.41" class="cls-1"/><circle cx="98.5" cy="146.6" r="2.41" class="cls-1"/><circle cx="88.89" cy="146.6" r="2.41" class="cls-1"/><circle cx="79.28" cy="146.6" r="2.41" class="cls-1"/><circle cx="69.67" cy="146.6" r="2.41" class="cls-1"/><circle cx="60.06" cy="146.6" r="2.41" class="cls-1"/><circle cx="50.45" cy="146.6" r="2.41" class="cls-1"/><circle cx="40.84" cy="146.6" r="2.41" class="cls-1"/><circle cx="31.23" cy="146.6" r="2.41" class="cls-1"/><circle cx="21.63" cy="146.6" r="2.41" class="cls-1"/><circle cx="12.02" cy="146.6" r="2.41" class="cls-1"/><circle cx="233.02" cy="2.41" r="2.41" class="cls-1"/><circle cx="223.41" cy="2.41" r="2.41" class="cls-1"/><circle cx="213.8" cy="2.41" r="2.41" class="cls-1"/><circle cx="204.19" cy="2.41" r="2.41" class="cls-1"/><circle cx="194.59" cy="2.41" r="2.41" class="cls-1"/><circle cx="184.98" cy="2.41" r="2.41" class="cls-1"/><circle cx="175.37" cy="2.41" r="2.41" class="cls-1"/><circle cx="165.76" cy="2.41" r="2.41" class="cls-1"/><circle cx="156.15" cy="2.41" r="2.41" class="cls-1"/><circle cx="146.54" cy="2.41" r="2.41" class="cls-1"/><circle cx="136.93" cy="2.41" r="2.41" class="cls-1"/><circle cx="127.32" cy="2.41" r="2.41" class="cls-1"/><circle cx="117.71" cy="2.41" r="2.41" class="cls-1"/><circle cx="108.11" cy="2.41" r="2.41" class="cls-1"/><circle cx="98.5" cy="2.41" r="2.41" class="cls-1"/><circle cx="88.89" cy="2.41" r="2.41" class="cls-1"/><circle cx="79.28" cy="2.41" r="2.41" class="cls-1"/><circle cx="69.67" cy="2.41" r="2.41" class="cls-1"/><circle cx="60.06" cy="2.41" r="2.41" class="cls-1"/><circle cx="50.45" cy="2.41" r="2.41" class="cls-1"/><circle cx="40.84" cy="2.41" r="2.41" class="cls-1"/><circle cx="31.23" cy="2.41" r="2.41" class="cls-1"/><circle cx="21.63" cy="2.41" r="2.41" class="cls-1"/><circle cx="12.02" cy="2.41" r="2.41" class="cls-1"/><g style="opacity:.3"><circle cx="242.63" cy="12.05" r="2.41"/><circle cx="242.63" cy="137.05" r="2.41"/><circle cx="242.63" cy="127.43" r="2.41"/><circle cx="242.63" cy="117.82" r="2.41"/><circle cx="242.63" cy="108.2" r="2.41"/><circle cx="242.63" cy="98.59" r="2.41"/><circle cx="242.63" cy="88.97" r="2.41"/><circle cx="242.63" cy="79.36" r="2.41"/><circle cx="242.63" cy="69.74" r="2.41"/><circle cx="242.63" cy="60.13" r="2.41"/><circle cx="242.63" cy="50.51" r="2.41"/><circle cx="242.63" cy="40.89" r="2.41"/><circle cx="242.63" cy="31.28" r="2.41"/><circle cx="242.63" cy="21.66" r="2.41"/><circle cx="2.41" cy="12.05" r="2.41"/><circle cx="2.41" cy="137.05" r="2.41"/><circle cx="2.41" cy="127.43" r="2.41"/><circle cx="2.41" cy="117.82" r="2.41"/><circle cx="2.41" cy="108.2" r="2.41"/><circle cx="2.41" cy="98.59" r="2.41"/><circle cx="2.41" cy="88.97" r="2.41"/><circle cx="2.41" cy="79.36" r="2.41"/><circle cx="2.41" cy="69.74" r="2.41"/><circle cx="2.41" cy="60.13" r="2.41"/><circle cx="2.41" cy="50.51" r="2.41"/><circle cx="2.41" cy="40.89" r="2.41"/><circle cx="2.41" cy="31.28" r="2.41"/><circle cx="2.41" cy="21.66" r="2.41"/><circle cx="233.02" cy="12.05" r="2.41"/><circle cx="233.02" cy="137.05" r="2.41"/><circle cx="233.02" cy="127.43" r="2.41"/><circle cx="233.02" cy="117.82" r="2.41"/><circle cx="233.02" cy="108.2" r="2.41"/><circle cx="233.02" cy="98.59" r="2.41"/><circle cx="233.02" cy="88.97" r="2.41"/><circle cx="233.02" cy="79.36" r="2.41"/><circle cx="233.02" cy="69.74" r="2.41"/><circle cx="233.02" cy="60.13" r="2.41"/><circle cx="233.02" cy="50.51" r="2.41"/><circle cx="233.02" cy="40.89" r="2.41"/><circle cx="233.02" cy="31.28" r="2.41"/><circle cx="233.02" cy="21.66" r="2.41"/><circle cx="223.41" cy="12.05" r="2.41"/><circle cx="223.41" cy="137.05" r="2.41"/><circle cx="223.41" cy="127.43" r="2.41"/><circle cx="223.41" cy="117.82" r="2.41"/><circle cx="223.41" cy="108.2" r="2.41"/><circle cx="223.41" cy="98.59" r="2.41"/><circle cx="223.41" cy="88.97" r="2.41"/><circle cx="223.41" cy="79.36" r="2.41"/><circle cx="223.41" cy="69.74" r="2.41"/><circle cx="223.41" cy="60.13" r="2.41"/><circle cx="223.41" cy="50.51" r="2.41"/><circle cx="223.41" cy="40.89" r="2.41"/><circle cx="223.41" cy="31.28" r="2.41"/><circle cx="223.41" cy="21.66" r="2.41"/><circle cx="213.8" cy="12.05" r="2.41"/><circle cx="213.8" cy="137.05" r="2.41"/><circle cx="213.8" cy="127.43" r="2.41"/><circle cx="213.8" cy="117.82" r="2.41"/><circle cx="213.8" cy="108.2" r="2.41"/><circle cx="213.8" cy="98.59" r="2.41"/><circle cx="213.8" cy="88.97" r="2.41"/><circle cx="213.8" cy="79.36" r="2.41"/><circle cx="213.8" cy="69.74" r="2.41"/><circle cx="213.8" cy="60.13" r="2.41"/><circle cx="213.8" cy="50.51" r="2.41"/><circle cx="213.8" cy="40.89" r="2.41"/><circle cx="213.8" cy="31.28" r="2.41"/><circle cx="213.8" cy="21.66" r="2.41"/><circle cx="204.19" cy="12.05" r="2.41"/><circle cx="204.19" cy="137.05" r="2.41"/><circle cx="204.19" cy="127.43" r="2.41"/><circle cx="204.19" cy="117.82" r="2.41"/><circle cx="204.19" cy="108.2" r="2.41"/><circle cx="204.19" cy="98.59" r="2.41"/><circle cx="204.19" cy="88.97" r="2.41"/><circle cx="204.19" cy="79.36" r="2.41"/><circle cx="204.19" cy="69.74" r="2.41"/><circle cx="204.19" cy="60.13" r="2.41"/><circle cx="204.19" cy="50.51" r="2.41"/><circle cx="204.19" cy="40.89" r="2.41"/><circle cx="204.19" cy="31.28" r="2.41"/><circle cx="204.19" cy="21.66" r="2.41"/><circle cx="194.59" cy="12.05" r="2.41"/><circle cx="194.59" cy="137.05" r="2.41"/><circle cx="194.59" cy="127.43" r="2.41"/><circle cx="194.59" cy="117.82" r="2.41"/><circle cx="194.59" cy="108.2" r="2.41"/><circle cx="194.59" cy="98.59" r="2.41"/><circle cx="194.59" cy="88.97" r="2.41"/><circle cx="194.59" cy="79.36" r="2.41"/><circle cx="194.59" cy="69.74" r="2.41"/><circle cx="194.59" cy="60.13" r="2.41"/><circle cx="194.59" cy="50.51" r="2.41"/><circle cx="194.59" cy="40.89" r="2.41"/><circle cx="194.59" cy="31.28" r="2.41"/><circle cx="194.59" cy="21.66" r="2.41"/><circle cx="184.98" cy="12.05" r="2.41"/><circle cx="184.98" cy="137.05" r="2.41"/><circle cx="184.98" cy="127.43" r="2.41"/><circle cx="184.98" cy="117.82" r="2.41"/><circle cx="184.98" cy="108.2" r="2.41"/><circle cx="184.98" cy="98.59" r="2.41"/><circle cx="184.98" cy="88.97" r="2.41"/><circle cx="184.98" cy="79.36" r="2.41"/><circle cx="184.98" cy="69.74" r="2.41"/><circle cx="184.98" cy="60.13" r="2.41"/><circle cx="184.98" cy="50.51" r="2.41"/><circle cx="184.98" cy="40.89" r="2.41"/><circle cx="184.98" cy="31.28" r="2.41"/><circle cx="184.98" cy="21.66" r="2.41"/><circle cx="175.37" cy="12.05" r="2.41"/><circle cx="175.37" cy="137.05" r="2.41"/><circle cx="175.37" cy="127.43" r="2.41"/><circle cx="175.37" cy="117.82" r="2.41"/><circle cx="175.37" cy="108.2" r="2.41"/><circle cx="175.37" cy="98.59" r="2.41"/><circle cx="175.37" cy="88.97" r="2.41"/><circle cx="175.37" cy="79.36" r="2.41"/><circle cx="175.37" cy="69.74" r="2.41"/><circle cx="175.37" cy="60.13" r="2.41"/><circle cx="175.37" cy="50.51" r="2.41"/><circle cx="175.37" cy="40.89" r="2.41"/><circle cx="175.37" cy="31.28" r="2.41"/><circle cx="175.37" cy="21.66" r="2.41"/><circle cx="165.76" cy="12.05" r="2.41"/><circle cx="165.76" cy="137.05" r="2.41"/><circle cx="165.76" cy="127.43" r="2.41"/><circle cx="165.76" cy="117.82" r="2.41"/><circle cx="165.76" cy="108.2" r="2.41"/><circle cx="165.76" cy="98.59" r="2.41"/><circle cx="165.76" cy="88.97" r="2.41"/><circle cx="165.76" cy="79.36" r="2.41"/><circle cx="165.76" cy="69.74" r="2.41"/><circle cx="165.76" cy="60.13" r="2.41"/><circle cx="165.76" cy="50.51" r="2.41"/><circle cx="165.76" cy="40.89" r="2.41"/><circle cx="165.76" cy="31.28" r="2.41"/><circle cx="165.76" cy="21.66" r="2.41"/><circle cx="156.15" cy="12.05" r="2.41"/><circle cx="156.15" cy="137.05" r="2.41"/><circle cx="156.15" cy="127.43" r="2.41"/><circle cx="156.15" cy="117.82" r="2.41"/><circle cx="156.15" cy="108.2" r="2.41"/><circle cx="156.15" cy="98.59" r="2.41"/><circle cx="156.15" cy="88.97" r="2.41"/><circle cx="156.15" cy="79.36" r="2.41"/><circle cx="156.15" cy="69.74" r="2.41"/><circle cx="156.15" cy="60.13" r="2.41"/><circle cx="156.15" cy="50.51" r="2.41"/><circle cx="156.15" cy="40.89" r="2.41"/><circle cx="156.15" cy="31.28" r="2.41"/><circle cx="156.15" cy="21.66" r="2.41"/><circle cx="146.54" cy="12.05" r="2.41"/><circle cx="146.54" cy="137.05" r="2.41"/><circle cx="146.54" cy="127.43" r="2.41"/><circle cx="146.54" cy="117.82" r="2.41"/><circle cx="146.54" cy="108.2" r="2.41"/><circle cx="146.54" cy="98.59" r="2.41"/><circle cx="146.54" cy="88.97" r="2.41"/><circle cx="146.54" cy="79.36" r="2.41"/><circle cx="146.54" cy="69.74" r="2.41"/><circle cx="146.54" cy="60.13" r="2.41"/><circle cx="146.54" cy="50.51" r="2.41"/><circle cx="146.54" cy="40.89" r="2.41"/><circle cx="146.54" cy="31.28" r="2.41"/><circle cx="146.54" cy="21.66" r="2.41"/><circle cx="136.93" cy="12.05" r="2.41"/><circle cx="136.93" cy="137.05" r="2.41"/><circle cx="136.93" cy="127.43" r="2.41"/><circle cx="136.93" cy="117.82" r="2.41"/><circle cx="136.93" cy="108.2" r="2.41"/><circle cx="136.93" cy="98.59" r="2.41"/><circle cx="136.93" cy="88.97" r="2.41"/><circle cx="136.93" cy="79.36" r="2.41"/><circle cx="136.93" cy="69.74" r="2.41"/><circle cx="136.93" cy="60.13" r="2.41"/><circle cx="136.93" cy="50.51" r="2.41"/><circle cx="136.93" cy="40.89" r="2.41"/><circle cx="136.93" cy="31.28" r="2.41"/><circle cx="136.93" cy="21.66" r="2.41"/><circle cx="127.32" cy="12.05" r="2.41"/><circle cx="127.32" cy="137.05" r="2.41"/><circle cx="127.32" cy="127.43" r="2.41"/><circle cx="127.32" cy="117.82" r="2.41"/><circle cx="127.32" cy="108.2" r="2.41"/><circle cx="127.32" cy="98.59" r="2.41"/><circle cx="127.32" cy="88.97" r="2.41"/><circle cx="127.32" cy="79.36" r="2.41"/><circle cx="127.32" cy="69.74" r="2.41"/><circle cx="127.32" cy="60.13" r="2.41"/><circle cx="127.32" cy="50.51" r="2.41"/><circle cx="127.32" cy="40.89" r="2.41"/><circle cx="127.32" cy="31.28" r="2.41"/><circle cx="127.32" cy="21.66" r="2.41"/><circle cx="117.71" cy="12.05" r="2.41"/><circle cx="117.71" cy="137.05" r="2.41"/><circle cx="117.71" cy="127.43" r="2.41"/><circle cx="117.71" cy="117.82" r="2.41"/><circle cx="117.71" cy="108.2" r="2.41"/><circle cx="117.71" cy="98.59" r="2.41"/><circle cx="117.71" cy="88.97" r="2.41"/><circle cx="117.71" cy="79.36" r="2.41"/><circle cx="117.71" cy="69.74" r="2.41"/><circle cx="117.71" cy="60.13" r="2.41"/><circle cx="117.71" cy="50.51" r="2.41"/><circle cx="117.71" cy="40.89" r="2.41"/><circle cx="117.71" cy="31.28" r="2.41"/><circle cx="117.71" cy="21.66" r="2.41"/><circle cx="108.11" cy="12.05" r="2.41"/><circle cx="108.11" cy="137.05" r="2.41"/><circle cx="108.11" cy="127.43" r="2.41"/><circle cx="108.11" cy="117.82" r="2.41"/><circle cx="108.11" cy="108.2" r="2.41"/><circle cx="108.11" cy="98.59" r="2.41"/><circle cx="108.11" cy="88.97" r="2.41"/><circle cx="108.11" cy="79.36" r="2.41"/><circle cx="108.11" cy="69.74" r="2.41"/><circle cx="108.11" cy="60.13" r="2.41"/><circle cx="108.11" cy="50.51" r="2.41"/><circle cx="108.11" cy="40.89" r="2.41"/><circle cx="108.11" cy="31.28" r="2.41"/><circle cx="108.11" cy="21.66" r="2.41"/><circle cx="98.5" cy="12.05" r="2.41"/><circle cx="98.5" cy="137.05" r="2.41"/><circle cx="98.5" cy="127.43" r="2.41"/><circle cx="98.5" cy="117.82" r="2.41"/><circle cx="98.5" cy="108.2" r="2.41"/><circle cx="98.5" cy="98.59" r="2.41"/><circle cx="98.5" cy="88.97" r="2.41"/><circle cx="98.5" cy="79.36" r="2.41"/><circle cx="98.5" cy="69.74" r="2.41"/><circle cx="98.5" cy="60.13" r="2.41"/><circle cx="98.5" cy="50.51" r="2.41"/><circle cx="98.5" cy="40.89" r="2.41"/><circle cx="98.5" cy="31.28" r="2.41"/><circle cx="98.5" cy="21.66" r="2.41"/><circle cx="88.89" cy="12.05" r="2.41"/><circle cx="88.89" cy="137.05" r="2.41"/><circle cx="88.89" cy="127.43" r="2.41"/><circle cx="88.89" cy="117.82" r="2.41"/><circle cx="88.89" cy="108.2" r="2.41"/><circle cx="88.89" cy="98.59" r="2.41"/><circle cx="88.89" cy="88.97" r="2.41"/><circle cx="88.89" cy="79.36" r="2.41"/><circle cx="88.89" cy="69.74" r="2.41"/><circle cx="88.89" cy="60.13" r="2.41"/><circle cx="88.89" cy="50.51" r="2.41"/><circle cx="88.89" cy="40.89" r="2.41"/><circle cx="88.89" cy="31.28" r="2.41"/><circle cx="88.89" cy="21.66" r="2.41"/><circle cx="79.28" cy="12.05" r="2.41"/><circle cx="79.28" cy="137.05" r="2.41"/><circle cx="79.28" cy="127.43" r="2.41"/><circle cx="79.28" cy="117.82" r="2.41"/><circle cx="79.28" cy="108.2" r="2.41"/><circle cx="79.28" cy="98.59" r="2.41"/><circle cx="79.28" cy="88.97" r="2.41"/><circle cx="79.28" cy="79.36" r="2.41"/><circle cx="79.28" cy="69.74" r="2.41"/><circle cx="79.28" cy="60.13" r="2.41"/><circle cx="79.28" cy="50.51" r="2.41"/><circle cx="79.28" cy="40.89" r="2.41"/><circle cx="79.28" cy="31.28" r="2.41"/><circle cx="79.28" cy="21.66" r="2.41"/><circle cx="69.67" cy="12.05" r="2.41"/><circle cx="69.67" cy="137.05" r="2.41"/><circle cx="69.67" cy="127.43" r="2.41"/><circle cx="69.67" cy="117.82" r="2.41"/><circle cx="69.67" cy="108.2" r="2.41"/><circle cx="69.67" cy="98.59" r="2.41"/><circle cx="69.67" cy="88.97" r="2.41"/><circle cx="69.67" cy="79.36" r="2.41"/><circle cx="69.67" cy="69.74" r="2.41"/><circle cx="69.67" cy="60.13" r="2.41"/><circle cx="69.67" cy="50.51" r="2.41"/><circle cx="69.67" cy="40.89" r="2.41"/><circle cx="69.67" cy="31.28" r="2.41"/><circle cx="69.67" cy="21.66" r="2.41"/><circle cx="60.06" cy="12.05" r="2.41"/><circle cx="60.06" cy="137.05" r="2.41"/><circle cx="60.06" cy="127.43" r="2.41"/><circle cx="60.06" cy="117.82" r="2.41"/><circle cx="60.06" cy="108.2" r="2.41"/><circle cx="60.06" cy="98.59" r="2.41"/><circle cx="60.06" cy="88.97" r="2.41"/><circle cx="60.06" cy="79.36" r="2.41"/><circle cx="60.06" cy="69.74" r="2.41"/><circle cx="60.06" cy="60.13" r="2.41"/><circle cx="60.06" cy="50.51" r="2.41"/><circle cx="60.06" cy="40.89" r="2.41"/><circle cx="60.06" cy="31.28" r="2.41"/><circle cx="60.06" cy="21.66" r="2.41"/><circle cx="50.45" cy="12.05" r="2.41"/><circle cx="50.45" cy="137.05" r="2.41"/><circle cx="50.45" cy="127.43" r="2.41"/><circle cx="50.45" cy="117.82" r="2.41"/><circle cx="50.45" cy="108.2" r="2.41"/><circle cx="50.45" cy="98.59" r="2.41"/><circle cx="50.45" cy="88.97" r="2.41"/><circle cx="50.45" cy="79.36" r="2.41"/><circle cx="50.45" cy="69.74" r="2.41"/><circle cx="50.45" cy="60.13" r="2.41"/><circle cx="50.45" cy="50.51" r="2.41"/><circle cx="50.45" cy="40.89" r="2.41"/><circle cx="50.45" cy="31.28" r="2.41"/><circle cx="50.45" cy="21.66" r="2.41"/><circle cx="40.84" cy="12.05" r="2.41"/><circle cx="40.84" cy="137.05" r="2.41"/><circle cx="40.84" cy="127.43" r="2.41"/><circle cx="40.84" cy="117.82" r="2.41"/><circle cx="40.84" cy="108.2" r="2.41"/><circle cx="40.84" cy="98.59" r="2.41"/><circle cx="40.84" cy="88.97" r="2.41"/><circle cx="40.84" cy="79.36" r="2.41"/><circle cx="40.84" cy="69.74" r="2.41"/><circle cx="40.84" cy="60.13" r="2.41"/><circle cx="40.84" cy="50.51" r="2.41"/><circle cx="40.84" cy="40.89" r="2.41"/><circle cx="40.84" cy="31.28" r="2.41"/><circle cx="40.84" cy="21.66" r="2.41"/><circle cx="31.23" cy="12.05" r="2.41"/><circle cx="31.23" cy="137.05" r="2.41"/><circle cx="31.23" cy="127.43" r="2.41"/><circle cx="31.23" cy="117.82" r="2.41"/><circle cx="31.23" cy="108.2" r="2.41"/><circle cx="31.23" cy="98.59" r="2.41"/><circle cx="31.23" cy="88.97" r="2.41"/><circle cx="31.23" cy="79.36" r="2.41"/><circle cx="31.23" cy="69.74" r="2.41"/><circle cx="31.23" cy="60.13" r="2.41"/><circle cx="31.23" cy="50.51" r="2.41"/><circle cx="31.23" cy="40.89" r="2.41"/><circle cx="31.23" cy="31.28" r="2.41"/><circle cx="31.23" cy="21.66" r="2.41"/><circle cx="21.63" cy="12.05" r="2.41"/><circle cx="21.63" cy="137.05" r="2.41"/><circle cx="21.63" cy="127.43" r="2.41"/><circle cx="21.63" cy="117.82" r="2.41"/><circle cx="21.63" cy="108.2" r="2.41"/><circle cx="21.63" cy="98.59" r="2.41"/><circle cx="21.63" cy="88.97" r="2.41"/><circle cx="21.63" cy="79.36" r="2.41"/><circle cx="21.63" cy="69.74" r="2.41"/><circle cx="21.63" cy="60.13" r="2.41"/><circle cx="21.63" cy="50.51" r="2.41"/><circle cx="21.63" cy="40.89" r="2.41"/><circle cx="21.63" cy="31.28" r="2.41"/><circle cx="21.63" cy="21.66" r="2.41"/><circle cx="12.02" cy="12.05" r="2.41"/><circle cx="12.02" cy="137.05" r="2.41"/><circle cx="12.02" cy="127.43" r="2.41"/><circle cx="12.02" cy="117.82" r="2.41"/><circle cx="12.02" cy="108.2" r="2.41"/><circle cx="12.02" cy="98.59" r="2.41"/><circle cx="12.02" cy="88.97" r="2.41"/><circle cx="12.02" cy="79.36" r="2.41"/><circle cx="12.02" cy="69.74" r="2.41"/><circle cx="12.02" cy="60.13" r="2.41"/><circle cx="12.02" cy="50.51" r="2.41"/><circle cx="12.02" cy="40.89" r="2.41"/><circle cx="12.02" cy="31.28" r="2.41"/><circle cx="12.02" cy="21.66" r="2.41"/><circle cx="233.02" cy="146.6" r="2.41"/><circle cx="223.41" cy="146.6" r="2.41"/><circle cx="213.8" cy="146.6" r="2.41"/><circle cx="204.19" cy="146.6" r="2.41"/><circle cx="194.59" cy="146.6" r="2.41"/><circle cx="184.98" cy="146.6" r="2.41"/><circle cx="175.37" cy="146.6" r="2.41"/><circle cx="165.76" cy="146.6" r="2.41"/><circle cx="156.15" cy="146.6" r="2.41"/><circle cx="146.54" cy="146.6" r="2.41"/><circle cx="136.93" cy="146.6" r="2.41"/><circle cx="127.32" cy="146.6" r="2.41"/><circle cx="117.71" cy="146.6" r="2.41"/><circle cx="108.11" cy="146.6" r="2.41"/><circle cx="98.5" cy="146.6" r="2.41"/><circle cx="88.89" cy="146.6" r="2.41"/><circle cx="79.28" cy="146.6" r="2.41"/><circle cx="69.67" cy="146.6" r="2.41"/><circle cx="60.06" cy="146.6" r="2.41"/><circle cx="50.45" cy="146.6" r="2.41"/><circle cx="40.84" cy="146.6" r="2.41"/><circle cx="31.23" cy="146.6" r="2.41"/><circle cx="21.63" cy="146.6" r="2.41"/><circle cx="12.02" cy="146.6" r="2.41"/><circle cx="233.02" cy="2.41" r="2.41"/><circle cx="223.41" cy="2.41" r="2.41"/><circle cx="213.8" cy="2.41" r="2.41"/><circle cx="204.19" cy="2.41" r="2.41"/><circle cx="194.59" cy="2.41" r="2.41"/><circle cx="184.98" cy="2.41" r="2.41"/><circle cx="175.37" cy="2.41" r="2.41"/><circle cx="165.76" cy="2.41" r="2.41"/><circle cx="156.15" cy="2.41" r="2.41"/><circle cx="146.54" cy="2.41" r="2.41"/><circle cx="136.93" cy="2.41" r="2.41"/><circle cx="127.32" cy="2.41" r="2.41"/><circle cx="117.71" cy="2.41" r="2.41"/><circle cx="108.11" cy="2.41" r="2.41"/><circle cx="98.5" cy="2.41" r="2.41"/><circle cx="88.89" cy="2.41" r="2.41"/><circle cx="79.28" cy="2.41" r="2.41"/><circle cx="69.67" cy="2.41" r="2.41"/><circle cx="60.06" cy="2.41" r="2.41"/><circle cx="50.45" cy="2.41" r="2.41"/><circle cx="40.84" cy="2.41" r="2.41"/><circle cx="31.23" cy="2.41" r="2.41"/><circle cx="21.63" cy="2.41" r="2.41"/><circle cx="12.02" cy="2.41" r="2.41"/></g></g></g></g></g></svg>